<svg id="Capa_1" enable-background="new 0 0 512 512" height="512" viewBox="0 0 512 512" width="512" xmlns="http://www.w3.org/2000/svg"><g><path d="m256 176.135c4.143 0 7.5-3.358 7.5-7.5v-18.989c0-4.142-3.357-7.5-7.5-7.5s-7.5 3.358-7.5 7.5v18.989c0 4.142 3.358 7.5 7.5 7.5z"/><path d="m237.156 206.182c.541.216 9.146 3.576 19.977 3.576 5.692 0 12.003-.93 18.075-3.732 3.761-1.736 5.403-6.191 3.667-9.953-1.735-3.761-6.191-5.402-9.952-3.667-11.632 5.368-25.938-.053-26.228-.165-3.843-1.521-8.191.354-9.725 4.194-1.535 3.847.339 8.211 4.186 9.747z"/><path d="m440.349 503.768-14.949-152.358c-2.241-22.875-19.569-41.898-42.138-46.261l-90.642-17.53v-44.61c26.397-1.247 47.49-23.105 47.49-49.8v-24.936h6.258c14.813.099 27.696-12.742 27.334-28.036 0-13.447-9.764-24.65-22.573-26.91l5.901-28.343c1.753-8.388 2.642-17.029 2.642-25.684v-12.792c0-25.644-20.863-46.508-46.508-46.508h-114.317c-25.65 0-46.519 20.868-46.519 46.519v12.782c0 8.655.889 17.296 2.641 25.679l5.902 28.348c-12.809 2.26-22.573 13.463-22.573 26.91-.498 14.749 12.078 28.061 27.334 28.036h6.258v24.936c0 26.696 21.092 48.559 47.49 49.804v44.605l-90.642 17.53c-22.568 4.363-39.896 23.386-42.138 46.26l-14.948 152.359c-.404 4.123 2.609 7.792 6.731 8.197.249.024.496.036.741.036 3.812 0 7.075-2.895 7.455-6.768l14.949-152.359c1.358-12.57 9.815-26.627 24.998-31.63l17.511 30.493c3.267 5.689 4.993 12.162 4.993 18.721v134.042c0 4.142 3.357 7.5 7.5 7.5s7.5-3.358 7.5-7.5v-134.043c0-9.175-2.415-18.232-6.985-26.19l-15.151-26.384 83.704-16.188 22.901 12.934v17.164c-6.969 2.347-12.489 7.867-14.835 14.837h-16.055c-4.143 0-7.5 3.358-7.5 7.5s3.357 7.5 7.5 7.5h16.057c2.347 6.967 7.865 12.484 14.833 14.831v18.977c-6.968 2.346-12.486 7.864-14.833 14.832h-16.057c-4.143 0-7.5 3.358-7.5 7.5s3.357 7.5 7.5 7.5h16.056c2.346 6.969 7.865 12.488 14.834 14.835v64.395c0 4.142 3.357 7.5 7.5 7.5s7.5-3.358 7.5-7.5v-64.395c6.969-2.347 12.488-7.866 14.834-14.835h16.056c4.143 0 7.5-3.358 7.5-7.5s-3.357-7.5-7.5-7.5h-16.057c-2.347-6.968-7.865-12.486-14.833-14.832v-18.977c6.968-2.346 12.485-7.863 14.833-14.831h16.057c4.143 0 7.5-3.358 7.5-7.5s-3.357-7.5-7.5-7.5h-16.055c-2.346-6.97-7.865-12.49-14.835-14.837v-17.164l22.902-12.934 83.747 16.196-15.055 26.462c-4.501 7.911-6.88 16.904-6.88 26.007v62.214c0 4.142 3.357 7.5 7.5 7.5s7.5-3.358 7.5-7.5v-62.214c0-6.507 1.7-12.936 4.917-18.589l17.364-30.52c11.915 4.278 23.613 15.646 24.977 31.623l14.949 152.358c.047.484.14.953.273 1.403.931 3.149 3.846 5.366 7.182 5.365.245 0 .492-.012.741-.036 4.124-.404 7.137-4.074 6.733-8.196zm-81.647-363.53c.382 5.948-4.9 12.993-12.334 13.036h-6.258v-25.37h6.258c6.801 0 12.334 5.533 12.334 12.334zm-191.374-93.719c0-17.379 14.14-31.519 31.519-31.519h114.317c17.373 0 31.508 14.135 31.508 31.508v12.792c0 7.626-.782 15.235-2.326 22.621l-6.45 30.981h-15.12c-1.59 0-2.962-1.187-3.192-2.759l-3.821-26.104c-.813-5.561-3.751-10.463-8.27-13.805-3.644-2.694-7.956-4.107-12.401-4.107-1.068 0-2.145.082-3.221.247l-33.871 5.194-33.87-5.194c-5.555-.851-11.104.52-15.622 3.86-4.519 3.341-7.456 8.244-8.27 13.804l-3.821 26.104c-.23 1.573-1.603 2.76-3.192 2.76h-15.12l-6.451-30.986c-1.543-7.381-2.325-14.99-2.325-22.616v-12.781zm-1.696 106.755c-6.059.072-12.705-5.75-12.334-13.036 0-6.801 5.533-12.334 12.334-12.334h6.258v25.37zm21.258 39.936v-32.339c0-.032.005-.064.005-.097v-32.871h4.33c8.979 0 16.732-6.701 18.034-15.586l3.821-26.105c.23-1.577 1.063-2.968 2.346-3.915 1.281-.948 2.851-1.335 4.431-1.095l35.007 5.368c.754.116 1.52.116 2.273 0l35.007-5.368c1.58-.243 3.149.147 4.431 1.095 1.282.947 2.115 2.338 2.346 3.916l3.821 26.105c1.302 8.885 9.055 15.586 18.034 15.586h4.33v32.871c0 .033.004.064.005.097v32.339c0 19.222-15.643 34.86-34.87 34.86h-28.293c-4.143 0-7.5 3.358-7.5 7.5s3.357 7.5 7.5 7.5h15.673v13.468l-21.621 12.209-21.62-12.211v-20.967c0-4.142-3.357-7.5-7.5-7.5h-5.12c-19.228 0-34.87-15.638-34.87-34.86zm47.494 96.22v-15.663l14.116 7.972v15.663zm30.178 64.747c-.027 4.695-3.848 8.506-8.548 8.514-.005 0-.01-.001-.014-.001s-.01.001-.014.001c-4.699-.008-8.52-3.819-8.548-8.514 0-.016.002-.031.002-.047 0-.017-.002-.033-.002-.05.026-4.701 3.855-8.518 8.562-8.518s8.536 3.817 8.562 8.518c0 .017-.002.033-.002.05 0 .016.002.031.002.047zm0 63.545c0 .016-.002.031-.002.048s.002.032.002.049c-.026 4.7-3.855 8.517-8.562 8.517s-8.536-3.816-8.562-8.517c0-.017.002-.032.002-.049 0-.016-.002-.031-.002-.048.027-4.69 3.84-8.498 8.533-8.514.01 0 .019.001.029.001s.019-.001.029-.001c4.693.016 8.507 3.824 8.533 8.514zm-1.062-135.983 14.117-7.973v15.663l-14.117 7.973z"/><path d="m355.714 460.263c-4.143 0-7.5 3.358-7.5 7.5v36.737c0 4.142 3.357 7.5 7.5 7.5s7.5-3.358 7.5-7.5v-36.737c0-4.142-3.357-7.5-7.5-7.5z"/></g></svg>